<?xml version="1.0" encoding="UTF-8" standalone="no"?>
<!DOCTYPE svg PUBLIC "-//W3C//DTD SVG 1.1//EN" "http://www.w3.org/Graphics/SVG/1.1/DTD/svg11.dtd">
<svg xmlns="http://www.w3.org/2000/svg" version="1.1" viewBox="0 0 512 512">
<path fill="#000000" d="
  M 194.55 237.02
  Q 190.79 223.20 186.97 209.01
  C 185.45 203.35 196.67 195.20 199.05 192.55
  C 228.86 159.26 232.28 111.17 207.39 74.24
  Q 204.60 70.10 204.25 67.62
  C 203.13 59.85 213.77 55.52 218.23 61.77
  C 251.49 108.43 246.28 170.35 204.37 209.86
  A 0.99 0.98 61.7 0 0 204.08 210.84
  Q 209.76 232.47 215.76 254.00
  C 216.97 258.33 213.86 263.01 209.48 263.68
  Q 206.10 264.19 202.32 261.92
  Q 180.75 248.91 158.94 235.87
  A 0.99 0.98 52.0 0 0 158.16 235.77
  C 81.96 256.87 7.72 194.34 16.75 115.79
  C 26.39 31.97 121.64 -12.28 191.53 35.97
  Q 195.47 38.69 196.50 40.96
  C 199.97 48.64 190.84 54.91 184.04 50.22
  C 158.88 32.87 129.30 27.40 100.17 36.17
  C 48.29 51.78 19.95 107.12 36.77 158.08
  C 53.51 208.80 106.87 234.78 157.55 219.29
  Q 160.53 218.38 163.62 220.18
  Q 178.57 228.90 193.36 237.92
  Q 195.08 238.96 194.55 237.02
  Z"
/>
<path fill="#000000" d="
  M 253.21 447.99
  Q 256.47 447.94 253.55 446.48
  Q 220.65 430.07 197.57 401.55
  Q 194.88 398.23 194.45 395.86
  C 192.94 387.55 203.45 384.02 209.00 390.52
  Q 216.46 399.27 220.61 403.39
  C 262.79 445.14 324.36 458.91 379.70 438.94
  C 436.22 418.54 476.89 365.15 479.70 304.22
  Q 482.50 243.56 443.20 197.13
  A 1.00 1.00 0.0 0 0 441.59 197.24
  Q 437.81 203.17 432.28 207.52
  A 1.01 1.00 51.0 0 0 432.13 208.96
  Q 446.21 225.61 454.29 246.11
  C 493.19 344.83 408.98 448.64 304.03 429.81
  C 269.48 423.61 239.52 404.57 218.42 376.46
  A 0.98 0.97 -17.7 0 0 217.63 376.06
  Q 181.37 375.94 145.27 376.01
  C 127.51 376.05 113.53 363.69 112.08 345.93
  C 111.42 337.91 110.46 328.06 121.52 328.01
  Q 128.53 327.99 135.05 327.99
  A 1.00 0.99 -1.1 0 0 136.05 326.96
  C 135.82 319.76 136.01 312.85 138.58 306.25
  Q 146.33 286.39 166.63 281.30
  Q 172.00 279.95 181.97 279.98
  Q 210.62 280.05 239.25 280.13
  C 259.13 280.18 276.61 293.89 279.46 313.76
  Q 280.16 318.58 280.09 326.91
  A 1.01 1.01 0.0 0 0 281.07 327.92
  Q 287.25 328.07 293.29 328.00
  C 305.28 327.87 304.18 335.41 303.82 344.73
  C 303.26 358.98 294.26 371.05 280.54 374.79
  Q 276.32 375.95 266.71 375.98
  Q 253.78 376.03 240.88 375.99
  Q 238.54 375.98 240.15 377.68
  Q 266.32 405.24 302.91 413.26
  C 354.85 424.64 407.71 399.69 433.03 354.01
  C 457.96 309.02 451.12 253.62 416.63 215.55
  A 1.01 1.00 64.1 0 0 415.72 215.23
  Q 398.43 218.22 384.43 208.05
  A 1.01 1.00 -49.1 0 0 383.14 208.15
  Q 371.25 219.74 359.67 231.47
  C 354.96 236.24 350.71 237.35 345.77 232.40
  Q 321.13 207.72 296.43 183.10
  A 1.00 1.00 0.0 0 0 295.01 183.10
  L 273.83 204.29
  A 1.00 1.00 0.0 0 0 273.83 205.71
  L 306.26 238.14
  A 1.00 1.00 0.0 0 0 307.66 238.15
  Q 311.93 234.08 313.07 232.84
  C 321.24 224.02 333.32 234.76 324.64 243.87
  Q 319.02 249.77 313.21 255.44
  C 308.74 259.81 304.37 258.73 300.14 254.67
  Q 298.19 252.81 296.19 251.03
  A 1.01 1.01 0.0 0 0 294.81 251.07
  Q 284.41 261.53 273.98 271.82
  C 269.44 276.30 265.33 276.38 260.91 272.00
  Q 250.94 262.11 241.05 252.16
  C 236.22 247.31 234.89 243.26 240.00 238.14
  Q 250.51 227.60 261.05 217.08
  A 1.00 1.00 0.0 0 0 261.03 215.64
  Q 259.05 213.78 257.14 211.75
  C 252.92 207.24 252.43 203.11 256.83 198.64
  Q 269.80 185.48 283.67 171.74
  A 1.00 0.99 45.6 0 0 283.68 170.34
  C 278.42 164.91 272.39 160.50 279.74 153.14
  Q 329.33 103.54 378.92 53.95
  C 383.56 49.31 387.57 48.31 392.50 52.98
  Q 397.61 57.83 402.50 62.93
  A 1.00 1.00 0.0 0 0 403.93 62.94
  L 425.15 41.72
  A 1.00 0.99 -44.8 0 0 425.16 40.32
  C 421.71 36.79 413.93 30.58 412.64 26.06
  C 410.32 17.93 420.30 12.93 426.29 18.92
  Q 458.98 51.60 491.65 84.27
  Q 494.66 87.28 495.40 89.45
  C 497.55 95.81 490.94 101.76 484.75 99.05
  Q 483.32 98.43 481.25 96.36
  Q 476.49 91.62 471.75 86.88
  A 1.01 1.00 -45.2 0 0 470.33 86.89
  L 449.16 108.19
  A 1.00 1.00 0.0 0 0 449.18 109.62
  Q 454.32 114.57 459.31 119.68
  C 465.52 126.04 459.75 136.69 451.36 133.23
  Q 449.21 132.34 445.80 128.94
  Q 416.26 99.39 386.84 69.95
  A 1.00 0.99 44.8 0 0 385.43 69.95
  L 296.33 159.04
  A 1.00 1.00 0.0 0 0 296.33 160.46
  L 351.54 215.67
  A 1.00 1.00 0.0 0 0 352.96 215.67
  L 372.72 195.91
  A 1.01 1.00 -37.0 0 0 372.89 194.73
  C 355.93 163.14 385.82 127.62 419.92 137.85
  C 437.34 143.08 448.61 159.94 447.81 178.06
  A 1.01 0.99 25.1 0 0 448.08 178.79
  Q 457.90 189.25 463.31 196.69
  C 524.88 281.37 496.09 399.29 402.55 446.29
  Q 401.95 446.59 400.56 446.98
  A 0.83 0.81 4.9 0 0 400.05 447.40
  Q 399.70 448.11 401.00 448.07
  C 407.15 447.87 412.62 447.75 418.02 450.31
  C 433.07 457.43 432.01 470.36 432.00 485.07
  C 432.00 492.17 429.85 495.99 422.48 495.99
  Q 372.32 496.00 322.15 496.00
  Q 318.65 496.00 316.94 495.29
  C 310.42 492.55 310.45 483.44 316.95 480.70
  Q 318.66 479.98 322.16 479.98
  Q 368.50 480.06 414.83 479.99
  A 1.00 0.99 3.2 0 0 415.82 479.11
  Q 416.19 475.77 416.02 472.51
  C 415.64 465.43 411.22 464.00 404.72 464.00
  Q 328.04 464.01 251.35 464.00
  C 244.70 463.99 240.19 465.44 240.00 472.76
  Q 239.91 475.88 240.10 479.02
  A 1.00 0.99 88.2 0 0 241.09 479.96
  Q 262.99 480.05 284.84 479.98
  Q 288.89 479.97 290.56 480.54
  C 299.87 483.73 296.53 495.97 286.38 495.98
  Q 260.65 496.01 234.92 496.00
  C 227.76 496.00 224.03 493.88 224.02 486.47
  C 224.01 479.62 223.28 471.32 225.10 465.30
  C 228.42 454.31 237.67 447.90 249.43 448.01
  Q 251.33 448.03 253.21 447.99
  Z
  M 459.3373 75.2901
  A 0.58 0.58 0.0 0 0 459.3373 74.4699
  L 437.5301 52.6627
  A 0.58 0.58 0.0 0 0 436.7099 52.6627
  L 414.9027 74.4699
  A 0.58 0.58 0.0 0 0 414.9027 75.2901
  L 436.7099 97.0973
  A 0.58 0.58 0.0 0 0 437.5301 97.0973
  L 459.3373 75.2901
  Z
  M 431.92 176.00
  A 23.93 23.93 0.0 0 0 407.99 152.07
  A 23.93 23.93 0.0 0 0 384.06 176.00
  A 23.93 23.93 0.0 0 0 407.99 199.93
  A 23.93 23.93 0.0 0 0 431.92 176.00
  Z
  M 283.8867 239.4836
  A 0.69 0.69 0.0 0 0 283.8867 238.5078
  L 273.4922 228.1133
  A 0.69 0.69 0.0 0 0 272.5164 228.1133
  L 256.4933 244.1364
  A 0.69 0.69 0.0 0 0 256.4933 245.1122
  L 266.8878 255.5067
  A 0.69 0.69 0.0 0 0 267.8636 255.5067
  L 283.8867 239.4836
  Z
  M 183.11 307.44
  C 179.92 314.04 169.80 313.00 168.24 305.99
  Q 167.92 304.55 167.93 299.06
  A 1.00 1.00 0.0 0 0 166.51 298.15
  Q 152.82 304.54 151.99 320.25
  Q 151.81 323.64 152.19 327.11
  A 1.01 1.00 -3.2 0 0 153.19 328.00
  L 262.81 328.00
  A 1.01 1.00 2.8 0 0 263.81 327.10
  Q 264.51 320.43 263.63 316.16
  Q 260.97 303.24 249.39 298.07
  A 1.00 1.00 0.0 0 0 247.98 299.03
  Q 248.09 301.32 247.97 303.49
  C 247.31 314.87 232.57 314.98 232.07 302.86
  Q 231.95 299.96 231.90 296.98
  A 1.00 1.00 0.0 0 0 230.90 296.00
  L 217.08 296.00
  A 0.99 0.99 0.0 0 0 216.09 296.94
  Q 215.96 299.24 215.97 301.53
  Q 216.00 305.24 215.36 306.87
  C 213.08 312.63 205.53 313.80 201.68 308.74
  Q 200.23 306.85 200.07 302.86
  Q 199.95 299.96 199.90 296.98
  A 1.00 1.00 0.0 0 0 198.90 296.00
  L 185.09 296.00
  A 1.00 0.99 1.2 0 0 184.09 296.95
  Q 183.98 299.45 183.97 301.85
  Q 183.96 305.66 183.11 307.44
  Z
  M 133.13 355.63
  Q 137.87 360.00 143.25 360.00
  Q 205.38 359.99 267.52 360.01
  C 278.48 360.01 286.11 356.96 288.02 345.16
  A 1.00 0.99 -85.3 0 0 287.04 344.00
  L 129.06 344.00
  A 0.99 0.99 0.0 0 0 128.07 345.06
  Q 128.44 351.30 133.13 355.63
  Z"
/>
<path fill="#000000" d="
  M 177.36 128.12
  Q 181.37 129.00 183.00 132.33
  Q 184.22 134.79 183.79 139.33
  C 181.50 163.54 160.70 178.19 137.12 175.71
  A 1.00 1.00 0.0 0 0 136.01 176.70
  C 135.99 181.21 137.04 191.19 135.17 195.29
  C 131.57 203.21 120.35 200.42 120.11 191.79
  Q 119.90 184.41 119.99 177.05
  A 1.00 1.00 0.0 0 0 118.98 176.04
  Q 110.73 176.12 108.00 175.76
  C 88.78 173.29 74.02 158.93 72.21 139.58
  Q 71.76 134.86 72.96 132.55
  Q 74.56 129.49 78.71 128.05
  A 1.00 1.00 0.0 0 0 79.20 126.53
  Q 72.80 117.47 72.08 105.93
  C 71.97 104.12 70.80 89.22 72.81 84.73
  C 75.56 78.59 84.23 78.50 87.11 84.59
  Q 87.93 86.33 87.97 90.19
  Q 87.99 92.58 88.09 94.97
  A 1.00 0.99 -0.3 0 0 89.07 95.93
  Q 96.10 96.06 103.00 96.04
  Q 110.92 96.01 118.56 99.68
  A 1.00 0.99 -77.0 0 0 119.99 98.78
  Q 120.01 91.00 120.00 83.05
  Q 119.99 78.17 121.10 76.14
  C 124.18 70.54 132.20 70.78 135.01 76.43
  Q 135.95 78.33 135.98 82.37
  Q 136.03 90.61 135.99 98.87
  A 1.00 1.00 0.0 0 0 137.46 99.76
  Q 144.85 95.84 153.51 95.96
  Q 160.21 96.06 166.93 95.93
  A 1.00 1.00 0.0 0 0 167.91 94.94
  Q 167.94 92.00 168.06 89.14
  Q 168.22 85.16 169.67 83.25
  C 173.27 78.49 180.47 79.20 183.05 84.50
  C 185.04 88.59 184.02 98.73 183.99 103.51
  Q 183.91 116.23 176.75 126.58
  A 1.00 0.99 23.6 0 0 177.36 128.12
  Z
  M 114.88 116.37
  Q 110.22 112.02 103.74 112.00
  Q 97.08 111.97 90.85 112.02
  A 1.00 0.99 -13.2 0 0 89.96 113.45
  Q 96.65 127.24 112.25 128.02
  Q 114.56 128.14 118.92 127.92
  A 1.00 1.00 0.0 0 0 119.87 126.85
  Q 119.41 120.60 114.88 116.37
  Z
  M 151.52 112.03
  C 143.40 112.37 136.51 118.75 136.05 126.87
  A 1.00 0.99 3.1 0 0 137.00 127.92
  C 141.90 128.16 146.93 128.18 151.40 126.70
  Q 161.43 123.37 165.95 113.47
  A 1.00 0.99 12.9 0 0 165.06 112.06
  Q 155.73 111.86 151.52 112.03
  Z
  M 114.89 148.36
  Q 110.23 144.00 103.74 143.99
  Q 97.30 143.99 90.84 144.00
  A 1.00 1.00 0.0 0 0 89.94 145.43
  Q 96.31 158.91 111.76 160.02
  Q 113.74 160.16 118.92 159.92
  A 1.00 1.00 0.0 0 0 119.87 158.85
  Q 119.41 152.60 114.89 148.36
  Z
  M 151.52 144.03
  C 143.40 144.37 136.51 150.75 136.05 158.87
  A 0.99 0.99 0.0 0 0 137.00 159.92
  C 141.90 160.16 146.94 160.18 151.40 158.70
  Q 161.42 155.37 165.95 145.47
  A 1.00 1.00 0.0 0 0 165.06 144.06
  Q 155.69 143.86 151.52 144.03
  Z"
/>
<circle fill="#000000" cx="407.97" cy="176.00" r="7.89"/>
</svg>
