<?xml version="1.0" encoding="UTF-8" standalone="no"?>
<!DOCTYPE svg PUBLIC "-//W3C//DTD SVG 1.1//EN" "http://www.w3.org/Graphics/SVG/1.1/DTD/svg11.dtd">
<svg xmlns="http://www.w3.org/2000/svg" version="1.1" viewBox="0.00 0.00 128.00 128.00">
<path fill="#000000" d="
  M 115.91 66.57
  Q 116.77 60.41 115.76 54.24
  C 107.73 4.99 43.99 -7.46 18.50 35.80
  A 1.67 1.67 0.0 0 1 16.29 36.42
  L 15.97 36.25
  Q 14.18 35.31 15.20 33.57
  C 36.95 -3.56 89.90 -4.15 112.16 32.53
  Q 121.29 47.57 120.10 66.02
  Q 120.03 67.01 120.73 66.31
  L 122.84 64.17
  A 1.60 1.59 44.1 0 1 125.08 64.14
  L 125.43 64.47
  A 1.90 1.90 0.0 0 1 125.48 67.15
  L 118.50 74.37
  A 2.03 2.02 -39.0 0 1 115.33 74.04
  L 109.85 65.28
  A 1.59 1.59 0.0 0 1 110.26 63.15
  L 110.60 62.89
  Q 112.36 61.60 113.47 63.48
  L 115.37 66.68
  A 0.29 0.29 0.0 0 0 115.91 66.57
  Z"
/>
<path fill="#000000" d="
  M 100.33 74.14
  C 123.07 74.08 134.39 102.37 116.34 117.12
  C 106.21 125.41 92.56 124.34 83.14 115.10
  Q 82.79 114.75 82.31 114.89
  Q 54.30 123.07 32.19 107.85
  C 15.27 96.20 6.64 77.55 7.87 56.81
  A 0.31 0.31 0.0 0 0 7.30 56.62
  Q 6.32 58.03 4.90 59.03
  A 1.59 1.58 -42.5 0 1 2.95 58.95
  L 2.60 58.65
  A 1.83 1.82 42.3 0 1 2.47 55.98
  L 9.58 48.68
  A 1.96 1.96 0.0 0 1 12.64 49.01
  L 17.97 57.52
  A 1.97 1.97 0.0 0 1 17.41 60.20
  L 17.05 60.44
  A 1.59 1.58 56.6 0 1 14.84 59.98
  L 12.82 56.86
  Q 12.04 55.65 11.93 57.08
  C 9.17 93.78 43.85 122.75 79.66 111.33
  Q 80.19 111.16 79.91 110.68
  Q 76.63 105.05 76.58 98.48
  Q 76.57 97.87 75.97 97.87
  Q 68.65 97.84 61.37 97.83
  Q 55.93 97.82 53.36 96.46
  Q 47.72 93.46 46.79 85.64
  Q 46.73 85.13 46.22 85.13
  Q 39.85 85.15 33.26 85.14
  Q 26.46 85.13 23.89 84.07
  C 16.35 80.95 15.32 70.52 21.61 65.15
  Q 21.98 64.84 21.84 64.37
  Q 18.96 54.76 27.24 50.23
  C 33.86 46.61 40.94 52.29 46.42 55.48
  Q 46.98 55.81 46.99 55.16
  C 47.05 50.96 46.68 45.78 47.46 42.30
  C 49.02 35.37 54.06 32.24 59.58 28.55
  Q 60.04 28.24 59.79 27.75
  C 58.46 25.22 58.96 21.69 59.00 18.93
  A 3.50 3.49 -89.6 0 1 62.49 15.48
  L 84.28 15.48
  A 3.46 3.45 89.2 0 1 87.73 18.85
  C 87.81 21.64 88.29 25.30 86.91 27.80
  Q 86.64 28.28 87.11 28.57
  C 94.27 33.00 99.86 37.52 99.76 46.75
  Q 99.61 60.17 99.78 73.60
  Q 99.79 74.14 100.33 74.14
  Z
  M 83.76 19.79
  A 0.31 0.31 0.0 0 0 83.45 19.48
  L 63.29 19.48
  A 0.31 0.31 0.0 0 0 62.98 19.79
  L 62.98 24.69
  A 0.31 0.31 0.0 0 0 63.29 25.00
  L 83.45 25.00
  A 0.31 0.31 0.0 0 0 83.76 24.69
  L 83.76 19.79
  Z
  M 51.76 45.14
  L 95.25 45.14
  A 0.39 0.38 86.1 0 0 95.63 44.70
  C 94.59 36.82 87.04 33.14 81.06 29.24
  Q 80.68 29.00 80.23 29.00
  L 66.67 29.00
  A 1.83 1.78 28.0 0 0 65.70 29.28
  C 58.97 33.54 51.89 37.28 51.17 44.49
  A 0.59 0.59 0.0 0 0 51.76 45.14
  Z
  M 68.07 54.99
  A 1.67 1.67 0.0 0 1 69.73 53.33
  Q 73.59 53.28 76.87 53.34
  C 79.29 53.39 78.63 57.23 78.74 59.28
  Q 78.77 59.78 79.26 59.78
  L 83.09 59.78
  A 2.09 2.09 0.0 0 1 85.18 61.87
  L 85.17 68.51
  A 1.96 1.96 0.0 0 1 83.23 70.47
  L 79.25 70.49
  Q 78.78 70.50 78.75 70.97
  C 78.62 73.15 79.57 77.12 75.99 77.07
  Q 72.82 77.02 69.93 76.90
  A 1.95 1.95 0.0 0 1 68.06 74.96
  L 68.03 71.08
  A 0.73 0.72 6.2 0 0 67.47 70.39
  L 67.11 70.30
  A 0.42 0.42 0.0 0 0 66.61 70.81
  Q 67.95 76.10 64.89 80.44
  Q 64.45 81.05 65.20 81.05
  L 83.47 81.04
  Q 83.92 81.04 84.26 80.73
  Q 88.97 76.29 95.29 74.79
  A 0.57 0.56 -6.4 0 0 95.73 74.24
  L 95.72 49.50
  A 0.36 0.35 90.0 0 0 95.37 49.14
  L 51.69 49.14
  Q 51.02 49.14 51.02 49.81
  L 51.01 57.71
  Q 51.01 58.12 51.37 58.33
  L 61.03 63.92
  A 0.41 0.40 9.0 0 0 61.63 63.49
  C 60.67 58.88 64.86 59.79 67.52 59.78
  Q 68.02 59.78 68.03 59.28
  L 68.07 54.99
  Z
  M 38.96 71.91
  L 45.68 60.21
  A 0.49 0.49 0.0 0 0 45.50 59.54
  L 36.14 54.16
  A 7.49 7.13 29.9 0 0 26.09 56.60
  L 25.99 56.79
  A 7.49 7.13 29.9 0 0 28.92 66.71
  L 38.29 72.09
  A 0.49 0.49 0.0 0 0 38.96 71.91
  Z
  M 75.81 63.45
  A 0.93 0.93 0.0 0 1 75.03 62.67
  L 74.29 57.77
  A 0.93 0.93 0.0 0 0 72.45 57.77
  L 71.71 62.67
  A 0.93 0.93 0.0 0 1 70.93 63.45
  L 66.03 64.19
  A 0.93 0.93 0.0 0 0 66.03 66.03
  L 70.93 66.77
  A 0.93 0.93 0.0 0 1 71.71 67.55
  L 72.45 72.45
  A 0.93 0.93 0.0 0 0 74.29 72.45
  L 75.03 67.55
  A 0.93 0.93 0.0 0 1 75.81 66.77
  L 80.71 66.03
  A 0.93 0.93 0.0 0 0 80.71 64.19
  L 75.81 63.45
  Z
  M 49.14 62.24
  L 42.42 73.94
  A 0.49 0.49 0.0 0 0 42.60 74.61
  L 51.98 80.00
  A 7.47 7.16 29.9 0 0 62.02 77.52
  L 62.10 77.38
  A 7.47 7.16 29.9 0 0 59.19 67.45
  L 49.81 62.06
  A 0.49 0.49 0.0 0 0 49.14 62.24
  Z
  M 39.88 77.67
  L 24.41 68.63
  Q 24.04 68.41 23.72 68.70
  C 20.38 71.66 20.82 77.29 24.36 79.71
  C 27.61 81.94 35.65 81.10 39.73 81.02
  Q 40.25 81.00 40.24 80.49
  L 40.24 78.28
  Q 40.24 77.88 39.88 77.67
  Z
  M 121.16 98.41
  A 20.30 20.30 0.0 0 0 100.86 78.11
  A 20.30 20.30 0.0 0 0 80.56 98.41
  A 20.30 20.30 0.0 0 0 100.86 118.71
  A 20.30 20.30 0.0 0 0 121.16 98.41
  Z
  M 80.09 85.30
  Q 80.15 85.14 79.98 85.14
  L 53.61 85.14
  Q 49.69 85.14 51.43 88.66
  L 52.05 89.93
  Q 53.99 93.86 58.38 93.86
  L 76.55 93.86
  Q 76.66 93.86 76.70 93.76
  L 80.09 85.30
  Z"
/>
<path fill="#000000" d="
  M 96.20 81.98
  Q 96.41 81.33 97.33 80.23
  Q 97.65 79.84 98.15 79.81
  C 99.65 79.69 103.26 79.38 104.44 80.30
  Q 105.31 80.96 105.37 81.53
  A 2.60 2.59 68.6 0 0 109.47 83.32
  Q 110.14 82.84 111.37 83.13
  C 112.82 83.46 114.83 85.95 115.84 87.03
  A 1.68 1.68 0.0 0 1 116.08 89.02
  Q 114.79 91.28 116.47 93.39
  Q 116.80 93.81 117.31 93.94
  Q 118.29 94.19 119.04 94.85
  Q 119.44 95.20 119.47 95.73
  C 119.61 98.08 120.44 102.19 117.31 102.87
  A 1.41 1.40 -75.5 0 0 116.57 103.31
  Q 114.79 105.38 116.04 107.78
  A 1.87 1.86 -36.8 0 1 115.72 109.94
  C 114.15 111.56 111.85 115.13 109.22 113.10
  A 1.06 1.06 0.0 0 0 108.16 112.96
  L 106.02 113.87
  Q 105.47 114.11 105.36 114.70
  Q 105.13 115.86 104.32 116.68
  Q 103.96 117.04 103.45 117.04
  L 98.25 117.04
  Q 97.67 117.04 97.29 116.61
  Q 96.63 115.84 96.36 114.85
  Q 96.23 114.38 95.86 114.06
  Q 93.80 112.31 91.47 113.61
  A 1.78 1.77 52.9 0 1 89.35 113.31
  L 85.94 109.90
  A 1.74 1.74 0.0 0 1 85.65 107.80
  Q 86.96 105.51 85.23 103.42
  A 0.93 0.89 81.1 0 0 84.86 103.14
  L 82.93 102.25
  Q 82.21 101.91 82.21 101.12
  L 82.21 95.65
  A 1.06 1.06 0.0 0 1 82.80 94.70
  L 84.64 93.79
  Q 85.00 93.61 85.25 93.30
  Q 86.98 91.21 85.62 88.96
  A 1.60 1.60 0.0 0 1 85.86 87.02
  L 89.32 83.55
  Q 89.75 83.12 90.36 83.08
  Q 91.26 83.01 91.95 83.46
  A 2.86 2.80 25.2 0 0 96.20 81.98
  Z
  M 102.99 110.91
  C 105.00 109.82 107.85 108.09 110.13 109.19
  A 0.84 0.84 0.0 0 0 110.95 109.15
  Q 111.29 108.93 111.49 108.59
  Q 111.75 108.13 111.59 107.63
  L 111.18 106.39
  Q 111.00 105.83 111.23 105.28
  L 113.21 100.53
  A 0.63 0.61 89.0 0 1 113.50 100.22
  L 115.03 99.44
  Q 115.48 99.21 115.52 98.70
  L 115.56 98.22
  A 0.84 0.83 14.3 0 0 115.06 97.39
  L 113.77 96.82
  Q 113.29 96.60 113.10 96.11
  C 112.13 93.65 110.57 91.66 111.63 88.98
  Q 111.85 88.42 111.37 88.06
  L 111.08 87.84
  Q 110.63 87.51 110.10 87.69
  L 108.87 88.12
  Q 108.37 88.30 107.87 88.10
  L 103.14 86.14
  Q 102.71 85.96 102.52 85.55
  L 101.92 84.27
  A 1.17 1.17 0.0 0 0 99.80 84.26
  L 99.25 85.44
  Q 99.00 85.97 98.45 86.20
  L 93.67 88.17
  A 0.94 0.94 0.0 0 1 92.95 88.17
  L 91.58 87.63
  A 1.13 1.13 0.0 0 0 90.09 89.03
  L 90.56 90.47
  Q 90.73 90.97 90.52 91.46
  L 88.58 96.15
  A 1.18 1.16 89.5 0 1 87.97 96.78
  L 86.58 97.42
  Q 86.08 97.65 86.14 98.20
  L 86.22 98.95
  Q 86.27 99.39 86.70 99.51
  C 89.12 100.18 89.59 103.24 90.54 105.30
  Q 90.75 105.77 90.59 106.26
  Q 90.39 106.88 90.19 107.49
  Q 90.00 108.10 90.17 108.50
  Q 90.40 109.02 90.93 109.20
  A 1.05 1.04 40.6 0 0 91.76 109.14
  C 93.80 108.05 95.79 109.63 97.76 110.33
  C 98.92 110.74 99.39 111.30 99.70 112.44
  Q 99.83 112.91 100.30 113.04
  Q 100.76 113.17 101.22 113.11
  Q 101.77 113.03 101.98 112.51
  L 102.32 111.66
  Q 102.52 111.16 102.99 110.91
  Z"
/>
<path fill="#000000" d="
  M 110.70 98.41
  A 9.84 9.84 0.0 0 1 100.86 108.25
  A 9.84 9.84 0.0 0 1 91.02 98.41
  A 9.84 9.84 0.0 0 1 100.86 88.57
  A 9.84 9.84 0.0 0 1 110.70 98.41
  Z
  M 106.71 98.42
  A 5.85 5.85 0.0 0 0 100.86 92.57
  A 5.85 5.85 0.0 0 0 95.01 98.42
  A 5.85 5.85 0.0 0 0 100.86 104.27
  A 5.85 5.85 0.0 0 0 106.71 98.42
  Z"
/>
</svg>
